<svg id="visual" viewBox="0 0 900 600" width="900" height="600" xmlns="http://www.w3.org/2000/svg" xmlns:xlink="http://www.w3.org/1999/xlink" version="1.1"><path d="M334 0L332.7 20C331.3 40 328.7 80 322.3 120C316 160 306 200 296.8 240C287.7 280 279.3 320 287.2 360C295 400 319 440 335.2 480C351.3 520 359.7 560 363.8 580L368 600L0 600L0 580C0 560 0 520 0 480C0 440 0 400 0 360C0 320 0 280 0 240C0 200 0 160 0 120C0 80 0 40 0 20L0 0Z" fill="#3e00ff" stroke-linecap="round" stroke-linejoin="miter"></path></svg>